<svg id="Layer_1" data-name="Layer 1" xmlns="http://www.w3.org/2000/svg" xmlns:xlink="http://www.w3.org/1999/xlink" viewBox="0 0 309.36 103.84"><defs><style>.cls-1{fill:url(#radial-gradient);}.cls-2{fill:#3c55ff;}</style><radialGradient id="radial-gradient" cx="137.67" cy="31.35" r="53.74" gradientUnits="userSpaceOnUse"><stop offset="0" stop-color="#00ff90"/><stop offset="0.99" stop-color="#3c55ff"/></radialGradient></defs><title>Mesa de trabajo 3</title><polygon class="cls-1" points="152.64 5.56 152.64 9.94 148.25 9.94 148.25 14.33 143.86 14.33 143.86 9.94 143.86 5.56 139.48 5.56 139.48 1.17 135.09 1.17 135.09 5.56 130.7 5.56 130.7 9.94 130.7 14.33 126.31 14.33 126.31 9.94 121.93 9.94 121.93 5.56 117.54 5.56 117.54 9.94 117.54 14.33 117.54 18.72 117.54 23.1 117.54 27.49 117.54 31.88 121.93 31.88 126.31 31.88 130.7 31.88 135.09 31.88 139.48 31.88 143.86 31.88 148.25 31.88 152.64 31.88 157.02 31.88 157.02 27.49 157.02 23.1 157.02 18.72 157.02 14.33 157.02 9.94 157.02 5.56 152.64 5.56"/><path class="cls-2" d="M36.31,101.47,17.16,73.77v27.7H3.48V41.63H17.16v26l18.3-26H51L30.84,70.78l21,30.69Z"/><path class="cls-2" d="M106.16,71.55a31.12,31.12,0,1,1,31.12,31.12A30.86,30.86,0,0,1,106.16,71.55Zm48.56,0c0-10.68-7.69-17.78-17.44-17.78s-17.44,7.1-17.44,17.78,7.7,17.78,17.44,17.78S154.72,82.24,154.72,71.55Z"/><path class="cls-2" d="M169.26,41.63h14.36L194,83.52l11.54-41.89h11.11l11.54,41.89,10.35-41.89h14.36l-16.5,59.84H220.81l-9.75-35.3-9.74,35.3H185.76Z"/><path class="cls-2" d="M305.88,41.63v59.84H295.62L272.54,69v32.48H258.86V41.63h10.26L292.2,74.12V41.63Z"/><path class="cls-2" d="M90.43,79.5a19.72,19.72,0,0,0,11-17.35A20.47,20.47,0,0,0,80.94,41.63H57V54.45H80.94c3.76,0,6.84,3.34,6.84,7.7s-3.08,7.69-6.84,7.69H70.68V62.7H57v38.77H70.68V81.81h6.5l11.28,19.66h14.71Z"/></svg>